<?xml version="1.0" encoding="UTF-8"?>
<svg id="Camada_1" data-name="Camada 1" xmlns="http://www.w3.org/2000/svg" viewBox="0 0 1920 597.92">
  <defs>
    <style>
      .cls-1 { fill: #246293; }
      .cls-1, .cls-2, .cls-3, .cls-4 { stroke-width: 0px; }
      .cls-2 { fill: #7c7b7c; }
      .cls-3 { fill: none; }
      .cls-4 { fill: #236092; }
    </style>
  </defs>
  <g>
    <path class="cls-2" d="m866.41,494.02c-4.55,0-8.68-1.09-12.38-3.27-3.7-2.18-6.64-5.14-8.82-8.87-2.18-3.73-3.27-7.91-3.27-12.52s1.04-8.68,3.13-12.38c2.09-3.7,4.9-6.64,8.44-8.82,3.54-2.18,7.49-3.27,11.86-3.27s8.05,1.09,11.43,3.27c3.38,2.18,6.07,5.12,8.06,8.82,1.99,3.7,2.99,7.83,2.99,12.38v2.18h-38.99c.38,3.1,1.38,5.88,2.99,8.35s3.71,4.41,6.31,5.83c2.59,1.42,5.44,2.13,8.54,2.13,2.47,0,4.87-.38,7.21-1.14,2.34-.76,4.3-1.83,5.88-3.22l4.36,4.65c-2.66,1.96-5.42,3.43-8.3,4.41-2.88.98-6.02,1.47-9.44,1.47Zm-17.36-28.08h31.78c-.38-2.85-1.31-5.39-2.8-7.64-1.49-2.25-3.34-4.02-5.55-5.31-2.21-1.29-4.65-1.94-7.31-1.94s-5.22.63-7.49,1.9c-2.28,1.27-4.17,3.02-5.69,5.27-1.52,2.25-2.5,4.82-2.94,7.73Z"/>
    <path class="cls-2" d="m897.63,493.17v-47.53h7.02v5.22c3.61-4.11,8.25-6.17,13.95-6.17,3.35,0,6.32.78,8.92,2.32,2.59,1.55,4.62,3.65,6.07,6.31,1.96-2.91,4.3-5.08,7.02-6.5,2.72-1.42,5.82-2.13,9.3-2.13s6.51.78,9.11,2.32c2.59,1.55,4.63,3.7,6.12,6.45,1.49,2.75,2.23,5.96,2.23,9.63v30.07h-6.93v-28.65c0-4.24-1.11-7.57-3.32-10.01-2.21-2.43-5.22-3.65-9.01-3.65-2.59,0-4.97.65-7.12,1.95-2.15,1.3-3.98,3.24-5.5,5.83.13.7.24,1.41.33,2.13.1.73.14,1.5.14,2.32v30.07h-6.93v-28.65c0-4.24-1.11-7.57-3.32-10.01-2.21-2.43-5.19-3.65-8.92-3.65-2.53,0-4.82.59-6.88,1.76-2.06,1.17-3.81,2.89-5.27,5.17v35.39h-7.02Z"/>
    <path class="cls-2" d="m979.12,493.17v-66.41l7.02-1.61v25.52c4.05-3.86,9.14-5.79,15.27-5.79,4.49,0,8.54,1.09,12.14,3.27,3.6,2.18,6.47,5.11,8.59,8.78,2.12,3.67,3.18,7.81,3.18,12.43s-1.06,8.78-3.18,12.48c-2.12,3.7-4.98,6.64-8.59,8.82-3.61,2.18-7.68,3.27-12.24,3.27-2.78,0-5.49-.47-8.11-1.42-2.63-.95-5.01-2.31-7.16-4.08v4.74h-6.93Zm21.63-5.41c3.35,0,6.36-.81,9.01-2.42s4.76-3.79,6.31-6.55c1.55-2.75,2.32-5.87,2.32-9.34s-.77-6.61-2.32-9.39c-1.55-2.78-3.65-4.98-6.31-6.59s-5.66-2.42-9.01-2.42c-2.97,0-5.74.58-8.3,1.75-2.56,1.17-4.67,2.8-6.31,4.89v23.53c1.64,2.03,3.76,3.62,6.36,4.79,2.59,1.17,5.34,1.75,8.25,1.75Z"/>
    <path class="cls-2" d="m1050.56,494.02c-3.48,0-6.53-.6-9.16-1.8-2.62-1.2-4.68-2.88-6.17-5.03-1.49-2.15-2.23-4.65-2.23-7.49,0-4.49,1.71-8.03,5.12-10.63,3.42-2.59,8.03-3.89,13.85-3.89,5.12,0,9.77,1.08,13.95,3.23v-6.26c0-3.79-1.08-6.66-3.23-8.59-2.15-1.93-5.28-2.89-9.39-2.89-2.34,0-4.7.33-7.07,1-2.37.66-4.98,1.72-7.83,3.18l-2.66-5.41c3.42-1.64,6.58-2.85,9.49-3.61,2.91-.76,5.82-1.14,8.73-1.14,6.01,0,10.64,1.42,13.9,4.27,3.26,2.85,4.89,6.93,4.89,12.24v31.97h-6.83v-4.65c-2.15,1.84-4.51,3.21-7.07,4.13s-5.33,1.38-8.3,1.38Zm-10.82-14.51c0,2.66,1.12,4.82,3.37,6.5,2.24,1.68,5.14,2.51,8.68,2.51,2.85,0,5.44-.44,7.78-1.33,2.34-.88,4.46-2.28,6.36-4.17v-8.92c-1.96-1.33-4.05-2.29-6.26-2.89-2.21-.6-4.71-.9-7.5-.9-3.79,0-6.82.84-9.06,2.51-2.25,1.68-3.37,3.91-3.37,6.69Z"/>
    <path class="cls-2" d="m1084.52,493.17v-66.41l7.02-1.61v68.02h-7.02Z"/>
    <path class="cls-2" d="m1118.48,494.02c-3.48,0-6.53-.6-9.16-1.8-2.62-1.2-4.68-2.88-6.17-5.03-1.49-2.15-2.23-4.65-2.23-7.49,0-4.49,1.71-8.03,5.12-10.63,3.42-2.59,8.03-3.89,13.85-3.89,5.12,0,9.77,1.08,13.95,3.23v-6.26c0-3.79-1.08-6.66-3.23-8.59-2.15-1.93-5.28-2.89-9.39-2.89-2.34,0-4.7.33-7.07,1-2.37.66-4.98,1.72-7.83,3.18l-2.66-5.41c3.42-1.64,6.58-2.85,9.49-3.61,2.91-.76,5.82-1.14,8.73-1.14,6.01,0,10.64,1.42,13.9,4.27,3.26,2.85,4.89,6.93,4.89,12.24v31.97h-6.83v-4.65c-2.15,1.84-4.51,3.21-7.07,4.13s-5.33,1.38-8.3,1.38Zm-10.82-14.51c0,2.66,1.12,4.82,3.37,6.5,2.24,1.68,5.14,2.51,8.68,2.51,2.85,0,5.44-.44,7.78-1.33,2.34-.88,4.46-2.28,6.36-4.17v-8.92c-1.96-1.33-4.05-2.29-6.26-2.89-2.21-.6-4.71-.9-7.5-.9-3.79,0-6.82.84-9.06,2.51-2.25,1.68-3.37,3.91-3.37,6.69Z"/>
    <path class="cls-2" d="m1175.59,513.47c-3.29,0-6.55-.43-9.77-1.28-3.23-.85-6.17-2.07-8.82-3.65l3.04-5.5c2.85,1.52,5.49,2.62,7.92,3.32,2.43.7,4.89,1.04,7.35,1.04,4.49,0,7.91-1.08,10.25-3.22,2.34-2.15,3.51-5.31,3.51-9.49v-6.64c-4.36,3.67-9.39,5.5-15.08,5.5-4.36,0-8.35-1.08-11.95-3.23-3.6-2.15-6.47-5.08-8.59-8.78-2.12-3.7-3.18-7.83-3.18-12.38s1.06-8.68,3.18-12.38c2.12-3.7,4.98-6.62,8.59-8.78,3.61-2.15,7.65-3.22,12.14-3.22,2.72,0,5.36.47,7.92,1.42,2.56.95,4.92,2.34,7.07,4.17v-4.74h6.93v48.95c0,6.07-1.77,10.73-5.31,13.99-3.54,3.26-8.6,4.89-15.18,4.89Zm-1.04-26.09c3.04,0,5.82-.57,8.35-1.71,2.53-1.14,4.58-2.75,6.17-4.84v-23.34c-1.58-2.02-3.65-3.6-6.21-4.74s-5.33-1.71-8.3-1.71c-3.29,0-6.25.79-8.87,2.37-2.62,1.58-4.7,3.75-6.21,6.5-1.52,2.75-2.28,5.83-2.28,9.25s.77,6.5,2.32,9.25c1.55,2.75,3.64,4.93,6.26,6.55,2.62,1.61,5.55,2.42,8.78,2.42Z"/>
    <path class="cls-2" d="m1230.33,494.02c-4.55,0-8.68-1.09-12.38-3.27-3.7-2.18-6.64-5.14-8.82-8.87-2.18-3.73-3.27-7.91-3.27-12.52s1.04-8.68,3.13-12.38c2.09-3.7,4.9-6.64,8.44-8.82,3.54-2.18,7.5-3.27,11.86-3.27s8.05,1.09,11.43,3.27c3.38,2.18,6.07,5.12,8.06,8.82,1.99,3.7,2.99,7.83,2.99,12.38v2.18h-38.99c.38,3.1,1.38,5.88,2.99,8.35,1.61,2.47,3.71,4.41,6.31,5.83,2.59,1.42,5.44,2.13,8.54,2.13,2.47,0,4.87-.38,7.21-1.14,2.34-.76,4.3-1.83,5.88-3.22l4.36,4.65c-2.66,1.96-5.42,3.43-8.3,4.41-2.88.98-6.02,1.47-9.44,1.47Zm-17.36-28.08h31.78c-.38-2.85-1.31-5.39-2.8-7.64-1.49-2.25-3.34-4.02-5.55-5.31-2.21-1.29-4.65-1.94-7.3-1.94s-5.22.63-7.5,1.9c-2.28,1.27-4.17,3.02-5.69,5.27-1.52,2.25-2.5,4.82-2.94,7.73Z"/>
    <path class="cls-2" d="m1261.54,493.17v-47.53h7.02v5.6c3.73-4.37,8.73-6.55,14.99-6.55,3.6,0,6.78.78,9.53,2.32,2.75,1.55,4.9,3.7,6.45,6.45,1.55,2.75,2.32,5.96,2.32,9.63v30.07h-6.93v-28.65c0-4.24-1.19-7.57-3.56-10.01-2.37-2.43-5.61-3.65-9.72-3.65-2.85,0-5.38.63-7.59,1.9-2.21,1.27-4.05,3.07-5.5,5.41v35.01h-7.02Z"/>
    <path class="cls-2" d="m1328.81,494.12c-3.92,0-7.61-.65-11.05-1.95-3.45-1.29-6.44-3.11-8.96-5.46l4.27-4.55c2.21,2.02,4.65,3.59,7.31,4.7,2.66,1.11,5.38,1.66,8.16,1.66,3.79,0,6.89-.79,9.3-2.37,2.4-1.58,3.61-3.64,3.61-6.17,0-2.09-.71-3.71-2.13-4.89-1.42-1.17-3.65-1.98-6.69-2.42l-8.25-1.14c-4.74-.7-8.27-2.12-10.58-4.27-2.31-2.15-3.46-5.06-3.46-8.73,0-2.66.76-5.03,2.28-7.12,1.52-2.09,3.62-3.73,6.31-4.93,2.69-1.2,5.77-1.8,9.25-1.8s6.74.51,9.77,1.52c3.04,1.01,6.01,2.59,8.92,4.74l-3.7,4.74c-2.66-1.83-5.23-3.18-7.73-4.03-2.5-.85-5.04-1.28-7.64-1.28-3.29,0-5.95.73-7.97,2.18-2.03,1.46-3.04,3.35-3.04,5.69,0,2.15.7,3.78,2.09,4.89,1.39,1.11,3.64,1.88,6.74,2.32l8.25,1.14c4.74.63,8.3,2.02,10.67,4.17s3.56,5.09,3.56,8.82c0,2.72-.85,5.19-2.56,7.4-1.71,2.21-4,3.95-6.88,5.22-2.88,1.26-6.15,1.9-9.82,1.9Z"/>
    <path class="cls-2" d="m1394.74,494.21c-4.36,0-8.19-.79-11.48-2.37-3.29-1.58-5.85-3.79-7.68-6.64-1.83-2.85-2.75-6.13-2.75-9.87,0-2.66.46-5.04,1.38-7.16.92-2.12,2.45-4.13,4.6-6.02,2.15-1.9,5.06-3.86,8.73-5.88-2.21-2.78-3.78-5.33-4.7-7.64-.92-2.31-1.38-4.73-1.38-7.26,0-2.97.7-5.64,2.09-8.02,1.39-2.37,3.3-4.24,5.74-5.6,2.43-1.36,5.17-2.04,8.21-2.04s5.49.59,7.73,1.76c2.24,1.17,4.02,2.78,5.31,4.84,1.3,2.06,1.95,4.44,1.95,7.16,0,3.1-.85,5.88-2.56,8.35-1.71,2.47-4.4,4.78-8.06,6.93l-4.74,2.85c2.59,2.91,5.44,5.88,8.54,8.92,3.1,3.04,6.26,6.04,9.49,9.01,1.58-2.53,2.89-5.31,3.94-8.35,1.04-3.04,1.88-6.2,2.51-9.49l6.45,1.04c-.82,4.05-1.9,7.83-3.23,11.34s-2.97,6.75-4.93,9.72c2.02,1.77,4.05,3.46,6.07,5.08,2.02,1.61,3.92,3.12,5.69,4.51l-4.27,5.03c-1.77-1.39-3.62-2.86-5.55-4.41-1.93-1.55-3.88-3.15-5.83-4.79-2.72,2.91-5.9,5.14-9.53,6.69-3.64,1.55-7.54,2.32-11.72,2.32Zm.38-5.98c3.16,0,6.12-.62,8.87-1.85,2.75-1.23,5.2-3.02,7.35-5.36-3.67-3.35-7.24-6.75-10.72-10.2-3.48-3.45-6.61-6.78-9.39-10.01-2.97,1.58-5.33,3.1-7.07,4.55-1.74,1.46-2.96,2.96-3.65,4.51-.7,1.55-1.04,3.31-1.04,5.26,0,3.92,1.44,7.08,4.32,9.49,2.88,2.41,6.66,3.61,11.34,3.61Zm-1.71-35.01l5.41-3.13c2.34-1.39,4.09-2.94,5.27-4.65,1.17-1.71,1.75-3.64,1.75-5.79,0-2.34-.82-4.3-2.47-5.88-1.65-1.58-3.67-2.37-6.07-2.37-2.66,0-4.85.92-6.59,2.75-1.74,1.84-2.61,4.21-2.61,7.12,0,1.96.39,3.84,1.19,5.64.79,1.8,2.17,3.91,4.13,6.31Z"/>
    <path class="cls-2" d="m1473.87,494.12c-3.92,0-7.61-.65-11.05-1.95-3.45-1.29-6.44-3.11-8.96-5.46l4.27-4.55c2.21,2.02,4.65,3.59,7.31,4.7,2.66,1.11,5.38,1.66,8.16,1.66,3.79,0,6.89-.79,9.3-2.37,2.4-1.58,3.61-3.64,3.61-6.17,0-2.09-.71-3.71-2.13-4.89-1.42-1.17-3.65-1.98-6.69-2.42l-8.25-1.14c-4.74-.7-8.27-2.12-10.58-4.27-2.31-2.15-3.46-5.06-3.46-8.73,0-2.66.76-5.03,2.28-7.12,1.52-2.09,3.62-3.73,6.31-4.93,2.69-1.2,5.77-1.8,9.25-1.8s6.74.51,9.77,1.52c3.04,1.01,6.01,2.59,8.92,4.74l-3.7,4.74c-2.66-1.83-5.23-3.18-7.73-4.03-2.5-.85-5.04-1.28-7.64-1.28-3.29,0-5.95.73-7.97,2.18-2.03,1.46-3.04,3.35-3.04,5.69,0,2.15.7,3.78,2.09,4.89,1.39,1.11,3.64,1.88,6.74,2.32l8.25,1.14c4.74.63,8.3,2.02,10.67,4.17s3.56,5.09,3.56,8.82c0,2.72-.85,5.19-2.56,7.4-1.71,2.21-4,3.95-6.88,5.22-2.88,1.26-6.15,1.9-9.82,1.9Z"/>
    <path class="cls-2" d="m1523.58,494.12c-4.49,0-8.59-1.09-12.29-3.27-3.7-2.18-6.63-5.14-8.78-8.87-2.15-3.73-3.23-7.91-3.23-12.52s1.07-8.79,3.23-12.52c2.15-3.73,5.08-6.69,8.78-8.87,3.7-2.18,7.79-3.27,12.29-3.27s8.66,1.09,12.33,3.27c3.67,2.18,6.58,5.14,8.73,8.87,2.15,3.73,3.23,7.91,3.23,12.52s-1.08,8.79-3.23,12.52c-2.15,3.73-5.06,6.69-8.73,8.87-3.67,2.18-7.78,3.27-12.33,3.27Zm0-6.26c3.23,0,6.15-.82,8.78-2.47,2.62-1.64,4.71-3.86,6.26-6.64,1.55-2.78,2.32-5.88,2.32-9.3s-.78-6.59-2.32-9.35c-1.55-2.75-3.64-4.95-6.26-6.59-2.62-1.64-5.55-2.47-8.78-2.47s-6.15.82-8.78,2.47c-2.63,1.65-4.71,3.84-6.26,6.59-1.55,2.75-2.32,5.87-2.32,9.35s.77,6.51,2.32,9.3c1.55,2.78,3.64,5,6.26,6.64,2.62,1.65,5.55,2.47,8.78,2.47Z"/>
    <path class="cls-2" d="m1557.63,493.17v-66.41l7.02-1.61v68.02h-7.02Z"/>
    <path class="cls-2" d="m1594.82,494.12c-3.61,0-6.8-.78-9.58-2.32-2.78-1.55-4.95-3.7-6.5-6.45-1.55-2.75-2.32-5.96-2.32-9.63v-30.07h6.93v28.65c0,4.24,1.2,7.58,3.6,10.01,2.4,2.44,5.63,3.65,9.68,3.65,2.85,0,5.39-.65,7.64-1.95,2.24-1.3,4.06-3.12,5.46-5.46v-34.91h7.02v47.53h-7.02v-5.5c-3.73,4.3-8.7,6.45-14.89,6.45Z"/>
    <path class="cls-2" d="m1649.47,514.8c-4.36,0-7.94-1.3-10.72-3.89l2.85-3.04c2.4,2.02,5.03,3.04,7.88,3.04,1.9,0,3.38-.43,4.46-1.28,1.07-.85,1.61-1.98,1.61-3.37s-.59-2.48-1.75-3.27c-1.17-.79-2.77-1.19-4.79-1.19h-2.75l2.28-7.87c-4.17-.38-7.92-1.69-11.24-3.94-3.32-2.24-5.95-5.15-7.87-8.73-1.93-3.57-2.89-7.54-2.89-11.91,0-4.62,1.07-8.78,3.23-12.47,2.15-3.7,5.06-6.66,8.73-8.87,3.67-2.21,7.75-3.32,12.24-3.32,3.48,0,6.83.65,10.06,1.95,3.23,1.3,6.07,3.15,8.54,5.55l-4.46,5.12c-1.9-2.02-4.07-3.56-6.5-4.6-2.44-1.04-4.95-1.57-7.54-1.57-3.23,0-6.15.81-8.78,2.42-2.63,1.61-4.71,3.79-6.26,6.54-1.55,2.75-2.32,5.83-2.32,9.25s.77,6.52,2.32,9.3c1.55,2.78,3.65,4.98,6.31,6.59,2.66,1.61,5.6,2.42,8.82,2.42,2.59,0,5.04-.51,7.35-1.52,2.31-1.01,4.47-2.5,6.5-4.46l4.36,4.74c-2.28,2.15-4.82,3.88-7.64,5.17-2.82,1.3-5.77,2.07-8.87,2.32l-1.23,4.46c2.78.12,4.98.88,6.59,2.28,1.61,1.39,2.42,3.23,2.42,5.5,0,2.53-1.03,4.6-3.08,6.21-2.06,1.61-4.67,2.42-7.83,2.42Z"/>
    <path class="cls-2" d="m1698.04,494.12c-4.49,0-8.59-1.09-12.29-3.27-3.7-2.18-6.63-5.14-8.78-8.87-2.15-3.73-3.23-7.91-3.23-12.52s1.07-8.79,3.23-12.52c2.15-3.73,5.08-6.69,8.78-8.87,3.7-2.18,7.79-3.27,12.29-3.27s8.66,1.09,12.33,3.27c3.67,2.18,6.58,5.14,8.73,8.87,2.15,3.73,3.23,7.91,3.23,12.52s-1.08,8.79-3.23,12.52c-2.15,3.73-5.06,6.69-8.73,8.87-3.67,2.18-7.78,3.27-12.33,3.27Zm0-6.26c3.23,0,6.15-.82,8.78-2.47,2.62-1.64,4.71-3.86,6.26-6.64,1.55-2.78,2.32-5.88,2.32-9.3s-.78-6.59-2.32-9.35c-1.55-2.75-3.64-4.95-6.26-6.59-2.62-1.64-5.55-2.47-8.78-2.47s-6.15.82-8.78,2.47c-2.63,1.65-4.71,3.84-6.26,6.59-1.55,2.75-2.32,5.87-2.32,9.35s.77,6.51,2.32,9.3c1.55,2.78,3.64,5,6.26,6.64,2.62,1.65,5.55,2.47,8.78,2.47Zm-11-51.13l-4.93-.95c1.39-6.32,4.36-9.49,8.92-9.49,1.71,0,3.37.43,4.98,1.28s3.15,1.72,4.6,2.61c1.45.89,2.85,1.33,4.17,1.33,1.08,0,1.95-.41,2.61-1.23s1.22-2.21,1.66-4.17l4.84.95c-.63,3.16-1.71,5.54-3.23,7.12-1.52,1.58-3.42,2.37-5.69,2.37-1.64,0-3.27-.44-4.89-1.33-1.61-.89-3.16-1.76-4.65-2.61-1.49-.85-2.89-1.28-4.22-1.28-1.14,0-2.02.41-2.66,1.23-.63.82-1.14,2.21-1.52,4.17Z"/>
    <path class="cls-2" d="m1754.39,494.02c-4.55,0-8.68-1.09-12.38-3.27-3.7-2.18-6.64-5.14-8.82-8.87-2.18-3.73-3.27-7.91-3.27-12.52s1.04-8.68,3.13-12.38c2.09-3.7,4.9-6.64,8.44-8.82,3.54-2.18,7.5-3.27,11.86-3.27s8.05,1.09,11.43,3.27c3.38,2.18,6.07,5.12,8.06,8.82,1.99,3.7,2.99,7.83,2.99,12.38v2.18h-38.99c.38,3.1,1.38,5.88,2.99,8.35,1.61,2.47,3.71,4.41,6.31,5.83,2.59,1.42,5.44,2.13,8.54,2.13,2.47,0,4.87-.38,7.21-1.14,2.34-.76,4.3-1.83,5.88-3.22l4.36,4.65c-2.66,1.96-5.42,3.43-8.3,4.41-2.88.98-6.02,1.47-9.44,1.47Zm-17.36-28.08h31.78c-.38-2.85-1.31-5.39-2.8-7.64-1.49-2.25-3.34-4.02-5.55-5.31-2.21-1.29-4.65-1.94-7.3-1.94s-5.22.63-7.5,1.9c-2.28,1.27-4.17,3.02-5.69,5.27-1.52,2.25-2.5,4.82-2.94,7.73Z"/>
    <path class="cls-2" d="m1801.26,494.12c-3.92,0-7.61-.65-11.05-1.95-3.45-1.29-6.44-3.11-8.96-5.46l4.27-4.55c2.21,2.02,4.65,3.59,7.31,4.7,2.66,1.11,5.38,1.66,8.16,1.66,3.79,0,6.89-.79,9.3-2.37,2.4-1.58,3.61-3.64,3.61-6.17,0-2.09-.71-3.71-2.13-4.89-1.42-1.17-3.65-1.98-6.69-2.42l-8.25-1.14c-4.74-.7-8.27-2.12-10.58-4.27-2.31-2.15-3.46-5.06-3.46-8.73,0-2.66.76-5.03,2.28-7.12,1.52-2.09,3.62-3.73,6.31-4.93,2.69-1.2,5.77-1.8,9.25-1.8s6.74.51,9.77,1.52c3.04,1.01,6.01,2.59,8.92,4.74l-3.7,4.74c-2.66-1.83-5.23-3.18-7.73-4.03-2.5-.85-5.04-1.28-7.64-1.28-3.29,0-5.95.73-7.97,2.18-2.03,1.46-3.04,3.35-3.04,5.69,0,2.15.7,3.78,2.09,4.89,1.39,1.11,3.64,1.88,6.74,2.32l8.25,1.14c4.74.63,8.3,2.02,10.67,4.17s3.56,5.09,3.56,8.82c0,2.72-.85,5.19-2.56,7.4-1.71,2.21-4,3.95-6.88,5.22-2.88,1.26-6.15,1.9-9.82,1.9Z"/>
  </g>
  <g>
    <rect class="cls-4" x="952.47" y="218.32" width="27.22" height="161.69"/>
    <rect class="cls-4" x="952.47" y="147.12" width="27.22" height="32.85"/>
    <path class="cls-4" d="m1816.9,310.22c-13.15-23.27-44.53-22.67-67.28-22.67h-45.46c-28.07,0-49.26,1.76-57.93-11.05-3.89-6.11-3.89-20.65-.3-26.17,6.89-10.46,23.59-9.33,49.9-9.33h50.8c24.19,0,41.55-3.99,43.95,25.12h24.83c0-14.6,0-22.48-9.29-32.38-11.38-12.15-36.13-15.66-53.53-15.66h-64.26c-22.73,0-53.79-.59-66.94,22.71-7.21,12.74-8.37,34.28.3,47.93,14.35,22.98,48.12,21.81,64.58,21.81h55.89c26.29,0,43.06-1.17,49.88,9.29,3.58,5.55,3.58,20.07-.26,26.16-8.67,12.82-29.94,11.06-58.01,11.06h-52.89c-22.39,0-28.43-.85-35.56-7.84-5.67-4.96-6.61-11.67-6.61-22.98h-24.79c0,17.99.26,24.74,6.89,33.68,13.74,19.82,35.86,20.12,58.27,20.12h72.93c16.14,0,49.94,1.12,64.24-21.82,8.69-13.64,7.51-35.19.63-47.97Z"/>
    <path class="cls-4" d="m354.88,218.19h-42.17c-27.16,0-43,.87-56.45,13.64-11.09,10.42-11.09,24.05-11.09,35.98h27.81s0-11.04,2.4-15.11c8.97-13.33,23.28-11.6,46.96-11.6h32.54c25.71,0,44.55-.87,54.99,9.87,8.6,8.62,9.3,22.12,9.31,40.09-11.04-5.5-23.48-6.44-34.82-6.44h-71.91c-29.02,0-56.19-2.62-69.36,18.56-7.46,11.61-5.68,48.13,0,57.72,12.56,21.39,42.45,18.83,67.83,18.83h61.28c17.64,0,32.02.88,46.95-16.52v16.52h27.18v-78.58c0-29,1.55-49.87-14.05-65.25-18.22-18.61-46.04-17.72-77.41-17.72Zm63.25,121.54c-.36,2.46-.98,4.64-1.95,6.04-9.25,14.82-47.86,13.93-58.33,14.53h-33.17c-25.4,0-47.48,1.46-56.18-12.78-3.55-6.05-4.49-23.48.29-30.71,3.28-5.2,8.41-8.45,15.83-10.15,3.61-.86,8.41-1.75,35.58-1.75h50.37c24.4,0,48.47,6.12,48.6,21.36v-.61c.03,3.54-.1,9.3-1.04,14.07Z"/>
    <path class="cls-4" d="m1471.89,218.39h-42.17c-27.16,0-43,.87-56.45,13.64-11.09,10.42-11.09,24.05-11.09,35.98h27.81s0-11.04,2.4-15.11c8.97-13.33,23.28-11.6,46.97-11.6h32.54c25.71,0,44.55-.87,54.99,9.87,8.6,8.62,9.3,22.12,9.31,40.09-11.04-5.5-23.48-6.44-34.82-6.44h-71.91c-29.02,0-56.19-2.62-69.36,18.56-7.46,11.61-5.68,48.14,0,57.72,12.56,21.39,42.45,18.83,67.83,18.83h61.28c17.64,0,32.02.88,46.95-16.52v16.52h27.18v-78.58c0-29,1.55-49.87-14.05-65.25-18.22-18.61-46.04-17.72-77.41-17.72Zm63.25,121.54c-.36,2.45-.98,4.64-1.95,6.04-9.25,14.82-47.86,13.93-58.33,14.53h-33.17c-25.4,0-47.48,1.46-56.18-12.78-3.55-6.05-4.49-23.48.29-30.71,3.28-5.2,8.41-8.45,15.83-10.15,3.61-.86,8.41-1.75,35.58-1.75h50.37c24.4,0,48.47,6.12,48.6,21.36v-.61c.03,3.54-.1,9.3-1.04,14.07Z"/>
    <path class="cls-4" d="m679.09,236.64c-24.82-21.48-92.95-19.45-116.89-16.82-15.5,1.8-29.2,5.3-40,16.25v-18h-23.79v161.94h23.78v-116.46c3.2-5.32,8.11-9.76,14.62-14.12,18.94-12.69,96.28-10.44,115.96,0,15.85,8.75,13.78,38.12,13.78,51.18v79.4h27.2v-82c0-26.79.89-47.68-14.66-61.37Z"/>
    <path class="cls-4" d="m1289.64,232.58c-22.73-18.03-107.86-15.39-129.99-11.89-14.56,2.2-24.39,5.86-31.41,13.1v-86.78h-25.11v232.89h25.11v-119.58c2.64-3.9,6.15-7.47,10.79-10.26,18.28-11.67,106.38-11.07,125.16-2.33,19.44,8.99,16.78,30.52,16.78,51.75v80.54h27.19v-85.77c0-15.71,2.67-45.07-18.52-61.66Z"/>
    <path class="cls-4" d="m884.94,311.86c-.13,13.73-1.8,34.82-14.66,41.68-7.18,4.38-58.57,4.65-66.35,0-15.87-9.31-14.05-26.48-14.05-53.78v-58.91l112.69-.31v-22.48h-44.75l-67.94.18v-39.17h-27.23v39.24l-35.25.1v22.58h9.29l25.96-.07v65.21c0,22.68-2.39,51.77,24.53,65.71,18.86,9.88,80.1,11.05,98.03.91,23.49-13.5,21.67-41.3,21.46-60.9h-21.74Z"/>
    <rect class="cls-4" x="1028.51" y="147" width="25.1" height="232.89"/>
  </g>
  <path class="cls-1" d="m572.62,197.7c3.66-.22,7.49-.39,11.4-.51l1.67-.05V54.9h-244.25c-134.46,0-243.86,109.39-243.86,243.86v244.25h325.02c89.93,0,163.09-73.16,163.09-163.09v-117.94l-1.76.05c-4.09.11-7.98.3-11.55.59l-1.58.12v117.18c0,81.72-66.48,148.2-148.2,148.2H112.48v-229.36c0-126.25,102.71-228.96,228.96-228.96h229.36v128.01l1.82-.11Z"/>
  <path class="cls-3" d="m522.16,263.58s.01-.02.02-.03"/>
</svg>
